<svg preserveAspectRatio="xMidYMid meet" data-bbox="0 0 980 286" viewBox="0 0 980 286" xmlns="http://www.w3.org/2000/svg" data-type="color" role="presentation" aria-hidden="true" aria-label="">
    <g>
        <path d="M286 0v286H0V0h286z" fill="#000000" data-color="1"></path>
        <path d="M596.3 0v286h-286V0h286z" fill="#000000" data-color="1"></path>
        <path d="M906.5 0v286h-286V0h286z" fill="#000000" data-color="1"></path>
        <path d="M980 237.2V286h-48.8v-48.8H980z" fill="#000000" data-color="1"></path>
        <path fill="#ffffff" d="M839.6 76V48.8H687.5V76h59.9v161.2h32.2V76h60z" data-color="2"></path>
        <path d="M179.8 135.9c15.6-8.7 25.5-23.5 25.5-41.1 0-31.9-26.1-49.6-60.3-49.6-23.8 0-45.5 8.7-61.4 24.3v2L98.7 88h2.3c10.1-10.7 25.2-16.5 40.3-16.5 18.8 0 31.9 9 31.9 25.2 0 17.1-14.8 29-37.1 29H121v22.9h14.2c26.4 0 43.8 13.3 43.8 35.1 0 16.2-13.9 30.4-37.7 30.4-19.4 0-38-11-47.5-22.9h-2.3l-16.8 15.9v2.3c14.5 18.3 42 31 67.8 31 43.8 0 69-25.5 69-55.3-.1-23.4-12-40.5-31.7-49.2z" fill="#ffffff" data-color="2"></path>
        <path d="M499.9 75V48.7h-93.3V75H437v135.6h-30.4V237h93.3v-26.4h-30.7V75h30.7z" fill="#ffffff" data-color="2"></path>
    </g>
</svg>